<svg width="124" height="147" viewBox="0 0 124 147" fill="none" xmlns="http://www.w3.org/2000/svg">
<path opacity="0.05" d="M123.021 109.519V146.852H8.5765V117.271L60.1885 69.5355C64.6765 65.3195 67.6685 61.7155 69.1645 58.7235C70.6605 55.7315 71.4085 52.8075 71.4085 49.9515C71.4085 46.4155 70.1845 43.6955 67.7365 41.7915C65.4245 39.7515 62.0245 38.7315 57.5365 38.7315C53.1845 38.7315 49.1045 39.8875 45.2965 42.1995C41.4885 44.5115 38.5645 47.7755 36.5245 51.9915L0.212502 33.8355C5.6525 23.6355 13.6085 15.6115 24.0805 9.76349C34.5525 3.7795 47.2005 0.787497 62.0245 0.787497C73.3125 0.787497 83.3085 2.6235 92.0125 6.2955C100.717 9.96749 107.517 15.2035 112.413 22.0035C117.309 28.8035 119.757 36.6235 119.757 45.4635C119.757 53.3515 118.057 60.7635 114.657 67.6995C111.393 74.4995 104.933 82.2515 95.2765 90.9555L74.8765 109.519H123.021Z" fill="#313132"/>
</svg>
