<svg width="123" height="147" viewBox="0 0 123 147" fill="none" xmlns="http://www.w3.org/2000/svg">
<path opacity="0.05" d="M88.1774 56.708C99.1934 59.428 107.625 64.392 113.473 71.6C119.457 78.672 122.449 87.24 122.449 97.304C122.449 105.872 120.069 113.896 115.309 121.376C110.685 128.72 103.477 134.704 93.6854 139.328C83.8934 143.952 71.7214 146.264 57.1694 146.264C47.1054 146.264 37.0414 145.176 26.9774 143C17.0494 140.824 8.34542 137.628 0.865416 133.412L17.1854 97.916C23.0334 101.316 29.2894 103.9 35.9534 105.668C42.7534 107.436 49.2814 108.32 55.5374 108.32C61.1134 108.32 65.6014 107.368 69.0014 105.464C72.4014 103.56 74.1014 100.84 74.1014 97.304C74.1014 90.776 68.4574 87.512 57.1694 87.512H38.1974V57.932L59.2094 36.512H8.20942V0.19999H114.697V29.78L88.1774 56.708Z" fill="#313132"/>
</svg>
