<?xml version="1.0" standalone="no"?>
<!DOCTYPE svg PUBLIC "-//W3C//DTD SVG 20010904//EN"
 "http://www.w3.org/TR/2001/REC-SVG-20010904/DTD/svg10.dtd">
<svg version="1.0" xmlns="http://www.w3.org/2000/svg"
 width="293.000000pt" height="293.000000pt" viewBox="0 0 293.000000 293.000000"
 preserveAspectRatio="xMidYMid meet">
<metadata>
Created by potrace 1.14, written by Peter Selinger 2001-2017
</metadata>
<g transform="translate(0.000000,293.000000) scale(0.100000,-0.100000)"
fill="#0048FF" stroke="none">
<path d="M185 2889 c-75 -10 -131 -53 -160 -121 -13 -33 -15 -183 -15 -1303 0
-1088 2 -1271 15 -1301 20 -48 80 -102 124 -111 43 -8 921 -11 921 -2 0 3 -23
16 -52 30 -220 103 -408 335 -480 594 -32 116 -32 345 0 460 28 98 92 237 106
232 66 -25 321 -86 340 -81 40 10 59 38 52 76 -21 109 -20 115 12 148 64 64
172 18 172 -74 0 -16 -17 -45 -46 -77 -38 -43 -44 -56 -39 -78 11 -44 35 -62
98 -75 41 -9 239 -65 244 -69 2 -2 -10 -56 -27 -118 -57 -215 -69 -232 -125
-177 -48 47 -69 58 -119 58 -137 0 -175 -202 -47 -254 39 -15 68 -14 116 4 43
16 58 3 58 -50 -1 -15 -52 -209 -114 -434 -25 -87 -28 -110 -18 -117 7 -4 15
-6 17 -4 9 8 152 552 152 576 0 31 -34 69 -62 69 -12 0 -36 -5 -53 -11 -50
-18 -102 -4 -126 34 -49 78 28 181 112 149 13 -6 41 -26 61 -46 42 -41 74 -46
106 -16 22 20 30 46 76 219 14 52 29 98 33 102 13 11 296 -69 311 -88 17 -24
16 -30 -17 -59 -113 -101 -54 -255 93 -241 40 3 55 11 78 36 37 41 43 72 28
137 -10 41 -10 57 -1 68 15 18 34 15 208 -33 l138 -39 -2 -78 c-6 -229 -139
-481 -338 -641 -62 -49 -183 -123 -204 -123 -8 0 -11 -3 -8 -7 4 -4 218 -7
475 -8 426 -1 470 1 504 17 50 24 95 82 106 137 5 26 8 600 8 1296 l-2 1250
-24 42 c-28 51 -80 89 -135 100 -30 6 -1136 9 -1235 4 -8 -1 2 -15 25 -33 105
-86 315 -337 315 -378 0 -9 -45 -183 -101 -386 -55 -203 -101 -386 -102 -407
-3 -67 36 -84 133 -60 45 12 83 -2 104 -38 39 -66 3 -145 -72 -154 -35 -3 -59
9 -98 51 -38 41 -80 45 -111 12 -13 -14 -37 -81 -63 -175 l-42 -151 -86 24
c-48 13 -109 29 -137 35 -100 22 -119 56 -61 110 69 62 61 168 -14 213 -36 21
-113 21 -146 0 -50 -34 -70 -111 -44 -178 13 -34 -1 -56 -36 -56 -28 0 -286
69 -297 79 -12 12 86 143 171 228 43 43 144 129 223 192 112 88 157 131 196
185 127 178 194 383 194 597 1 101 -24 235 -51 278 -7 12 -104 14 -592 15
-320 1 -601 -2 -623 -5z"/>
</g>
</svg>
