<svg width="123" height="147" viewBox="0 0 123 147" fill="none" xmlns="http://www.w3.org/2000/svg">
<path opacity="0.05" d="M88.1769 56.708C99.1929 59.428 107.625 64.392 113.473 71.6C119.457 78.672 122.449 87.24 122.449 97.304C122.449 105.872 120.069 113.896 115.309 121.376C110.685 128.72 103.477 134.704 93.6849 139.328C83.8929 143.952 71.7209 146.264 57.1689 146.264C47.1049 146.264 37.0409 145.176 26.9769 143C17.0489 140.824 8.34487 137.628 0.864867 133.412L17.1849 97.916C23.0329 101.316 29.2889 103.9 35.9529 105.668C42.7529 107.436 49.2809 108.32 55.5369 108.32C61.1129 108.32 65.6009 107.368 69.0009 105.464C72.4009 103.56 74.1009 100.84 74.1009 97.304C74.1009 90.776 68.4569 87.512 57.1689 87.512H38.1969V57.932L59.2089 36.512H8.20887V0.19999H114.697V29.78L88.1769 56.708Z" fill="#313132"/>
</svg>
