<svg width="124" height="147" viewBox="0 0 124 147" fill="none" xmlns="http://www.w3.org/2000/svg">
<path opacity="0.05" d="M123.02 109.52V146.852H8.57626V117.272L60.1883 69.5356C64.6763 65.3196 67.6683 61.7156 69.1643 58.7236C70.6603 55.7316 71.4083 52.8076 71.4083 49.9516C71.4083 46.4156 70.1843 43.6956 67.7363 41.7916C65.4243 39.7516 62.0243 38.7316 57.5363 38.7316C53.1843 38.7316 49.1043 39.8876 45.2963 42.1996C41.4883 44.5116 38.5643 47.7756 36.5243 51.9916L0.212258 33.8356C5.65226 23.6356 13.6083 15.6116 24.0803 9.76355C34.5523 3.77956 47.2003 0.787558 62.0243 0.787558C73.3123 0.787558 83.3083 2.62356 92.0123 6.29556C100.716 9.96755 107.516 15.2036 112.412 22.0036C117.308 28.8036 119.756 36.6236 119.756 45.4636C119.756 53.3516 118.056 60.7636 114.656 67.6996C111.392 74.4996 104.932 82.2516 95.2763 90.9556L74.8763 109.52H123.02Z" fill="#313132"/>
</svg>
